<svg width="40" height="40" viewBox="0 0 40 40" fill="none" xmlns="http://www.w3.org/2000/svg">
<path d="M36.928 14.1289H1.70515C1.08383 14.1289 0.580154 14.6326 0.580154 15.2539V38.875C0.580154 39.4963 1.08383 40 1.70515 40H36.928C37.5494 40 38.053 39.4963 38.053 38.875V15.2539C38.053 14.6326 37.5494 14.1289 36.928 14.1289Z" fill="white"/>
<path d="M37.4905 13.0674H1.97398C1.20422 13.0674 0.580154 13.6915 0.580154 14.4612V15.3779H38.053V13.6299C38.053 13.4807 37.9938 13.3377 37.8883 13.2322C37.7828 13.1267 37.6397 13.0674 37.4905 13.0674Z" fill="white"/>
<path d="M38.6694 3.35938H14.3523C13.9596 3.35938 13.6413 3.76234 13.6413 4.25938V39.1C13.6413 39.5971 13.9596 40 14.3523 40H38.6694C39.0621 40 39.3805 39.597 39.3805 39.1V4.25938C39.3805 3.76234 39.0621 3.35938 38.6694 3.35938Z" fill="white"/>
<path d="M37.2945 1.46414H15.7637C14.5915 1.46414 13.6413 2.41437 13.6413 3.58656V4.5375H39.4169V3.58656C39.4168 2.41437 38.4666 1.46414 37.2945 1.46414Z" fill="white"/>
<path d="M10.2777 32.128H4.24711C4.09792 32.128 3.95485 32.0688 3.84936 31.9633C3.74387 31.8578 3.68461 31.7147 3.68461 31.5655V29.0984C3.68461 28.9492 3.74387 28.8061 3.84936 28.7006C3.95485 28.5951 4.09792 28.5359 4.24711 28.5359H10.2777C10.4268 28.5359 10.5699 28.5951 10.6754 28.7006C10.7809 28.8061 10.8402 28.9492 10.8402 29.0984V31.5655C10.8402 31.7147 10.7809 31.8578 10.6754 31.9633C10.5699 32.0688 10.4268 32.128 10.2777 32.128ZM10.8402 37.0706V34.6034C10.8402 34.4543 10.7809 34.3112 10.6754 34.2057C10.5699 34.1002 10.4268 34.0409 10.2777 34.0409H4.21609C4.06691 34.0409 3.92383 34.1002 3.81834 34.2057C3.71285 34.3112 3.65359 34.4543 3.65359 34.6034V37.0706C3.65359 37.2198 3.71285 37.3629 3.81834 37.4684C3.92383 37.5739 4.06691 37.6331 4.21609 37.6331H10.2777C10.4268 37.6331 10.5699 37.5739 10.6754 37.4684C10.7809 37.3629 10.8402 37.2198 10.8402 37.0706ZM31.6412 30.8442H21.3927V40H31.6412V30.8442ZM8.91836 17.4876V20.1797C8.91834 20.2897 8.87463 20.3952 8.79685 20.4729C8.71907 20.5507 8.61359 20.5944 8.50359 20.5945H5.99015C5.88016 20.5944 5.77467 20.5507 5.69689 20.4729C5.61911 20.3952 5.57541 20.2897 5.57539 20.1797V17.4877C5.57537 17.3777 5.53166 17.2722 5.45388 17.1944C5.3761 17.1166 5.27062 17.0729 5.16062 17.0729H4.13968C4.02969 17.0729 3.9242 17.1166 3.84642 17.1944C3.76865 17.2722 3.72494 17.3777 3.72492 17.4877V26.2034C3.72494 26.3134 3.76865 26.4189 3.84642 26.4967C3.9242 26.5745 4.02969 26.6182 4.13968 26.6182H5.1607C5.2707 26.6182 5.37618 26.5745 5.45396 26.4967C5.53174 26.4189 5.57545 26.3134 5.57547 26.2034V22.8596C5.57549 22.7496 5.61919 22.6441 5.69697 22.5663C5.77475 22.4886 5.88024 22.4449 5.99023 22.4448H8.50375C8.61374 22.4449 8.71923 22.4886 8.79701 22.5663C8.87479 22.6441 8.91849 22.7496 8.91851 22.8596V26.2034C8.91853 26.3134 8.96224 26.4189 9.04002 26.4967C9.1178 26.5745 9.22328 26.6182 9.33328 26.6182H10.3543C10.4643 26.6182 10.5698 26.5745 10.6476 26.4967C10.7253 26.4189 10.769 26.3134 10.7691 26.2034V17.4876C10.769 17.3776 10.7253 17.2721 10.6476 17.1943C10.5698 17.1165 10.4643 17.0728 10.3543 17.0728H9.33328C9.2788 17.0728 9.22485 17.0835 9.17452 17.1044C9.12418 17.1252 9.07845 17.1557 9.03992 17.1943C9.00139 17.2328 8.97082 17.2785 8.94997 17.3288C8.92911 17.3792 8.91837 17.4331 8.91836 17.4876Z" fill="white"/>
<path d="M28.184 19.5151H24.8384C24.6893 19.5151 24.5462 19.4558 24.4407 19.3503C24.3352 19.2448 24.2759 19.1018 24.2759 18.9526V15.4689C24.2759 15.3197 24.3352 15.1766 24.4407 15.0712C24.5462 14.9657 24.6893 14.9064 24.8384 14.9064H28.184C28.3332 14.9064 28.4762 14.9657 28.5817 15.0712C28.6872 15.1766 28.7465 15.3197 28.7465 15.4689V18.9526C28.7465 19.1018 28.6872 19.2448 28.5817 19.3503C28.4762 19.4558 28.3332 19.5151 28.184 19.5151ZM36.5653 18.9526V15.4689C36.5653 15.3197 36.506 15.1766 36.4006 15.0712C36.2951 14.9657 36.152 14.9064 36.0028 14.9064H32.6573C32.5081 14.9064 32.365 14.9657 32.2595 15.0712C32.154 15.1766 32.0948 15.3197 32.0948 15.4689V18.9526C32.0948 19.1018 32.154 19.2448 32.2595 19.3503C32.365 19.4558 32.5081 19.5151 32.6573 19.5151H36.0028C36.152 19.5151 36.2951 19.4558 36.4006 19.3503C36.506 19.2448 36.5653 19.1018 36.5653 18.9526ZM28.7465 26.4238V22.9402C28.7465 22.791 28.6872 22.6479 28.5817 22.5424C28.4762 22.4369 28.3332 22.3777 28.184 22.3777H24.8384C24.6893 22.3777 24.5462 22.4369 24.4407 22.5424C24.3352 22.6479 24.2759 22.791 24.2759 22.9402V26.4238C24.2759 26.573 24.3352 26.7161 24.4407 26.8216C24.5462 26.9271 24.6893 26.9863 24.8384 26.9863H28.184C28.3332 26.9863 28.4762 26.9271 28.5817 26.8216C28.6872 26.7161 28.7465 26.573 28.7465 26.4238ZM36.5653 26.4238V22.9402C36.5653 22.791 36.506 22.6479 36.4006 22.5424C36.2951 22.4369 36.152 22.3777 36.0028 22.3777H32.6573C32.5081 22.3777 32.365 22.4369 32.2595 22.5424C32.154 22.6479 32.0948 22.791 32.0948 22.9402V26.4238C32.0948 26.573 32.154 26.7161 32.2595 26.8216C32.365 26.9271 32.5081 26.9863 32.6573 26.9863H36.0028C36.152 26.9863 36.2951 26.9271 36.4006 26.8216C36.506 26.7161 36.5653 26.573 36.5653 26.4238ZM20.9277 18.9526V15.4689C20.9277 15.3197 20.8684 15.1766 20.7629 15.0712C20.6574 14.9657 20.5143 14.9064 20.3652 14.9064H17.0196C16.8704 14.9064 16.7273 14.9657 16.6219 15.0712C16.5164 15.1766 16.4571 15.3197 16.4571 15.4689V18.9526C16.4571 19.1018 16.5164 19.2448 16.6219 19.3503C16.7273 19.4558 16.8704 19.5151 17.0196 19.5151H20.3652C20.5143 19.5151 20.6574 19.4558 20.7629 19.3503C20.8684 19.2448 20.9277 19.1018 20.9277 18.9526ZM20.9277 26.4238V22.9402C20.9277 22.791 20.8684 22.6479 20.7629 22.5424C20.6574 22.4369 20.5143 22.3777 20.3652 22.3777H17.0196C16.8704 22.3777 16.7273 22.4369 16.6219 22.5424C16.5164 22.6479 16.4571 22.791 16.4571 22.9402V26.4238C16.4571 26.573 16.5164 26.7161 16.6219 26.8216C16.7273 26.9271 16.8704 26.9863 17.0196 26.9863H20.3652C20.5143 26.9863 20.6574 26.9271 20.7629 26.8216C20.8684 26.7161 20.9277 26.573 20.9277 26.4238ZM28.7465 11.468V7.98437C28.7465 7.83519 28.6872 7.69212 28.5817 7.58663C28.4762 7.48114 28.3332 7.42188 28.184 7.42188H24.8384C24.6893 7.42188 24.5462 7.48114 24.4407 7.58663C24.3352 7.69212 24.2759 7.83519 24.2759 7.98437V11.468C24.2759 11.6172 24.3352 11.7603 24.4407 11.8658C24.5462 11.9713 24.6893 12.0305 24.8384 12.0305H28.184C28.3332 12.0305 28.4762 11.9713 28.5817 11.8658C28.6872 11.7603 28.7465 11.6172 28.7465 11.468ZM36.5653 11.468V7.98437C36.5653 7.83519 36.506 7.69212 36.4006 7.58663C36.2951 7.48114 36.152 7.42188 36.0028 7.42188H32.6573C32.5081 7.42188 32.365 7.48114 32.2595 7.58663C32.154 7.69212 32.0948 7.83519 32.0948 7.98437V11.468C32.0948 11.6172 32.154 11.7603 32.2595 11.8658C32.365 11.9713 32.5081 12.0305 32.6573 12.0305H36.0028C36.152 12.0305 36.2951 11.9713 36.4006 11.8658C36.506 11.7603 36.5653 11.6172 36.5653 11.468ZM20.9277 11.468V7.98437C20.9277 7.83519 20.8684 7.69212 20.7629 7.58663C20.6574 7.48114 20.5143 7.42188 20.3652 7.42188H17.0196C16.8704 7.42188 16.7273 7.48114 16.6219 7.58663C16.5164 7.69212 16.4571 7.83519 16.4571 7.98437V11.468C16.4571 11.6172 16.5164 11.7603 16.6219 11.8658C16.7273 11.9713 16.8704 12.0305 17.0196 12.0305H20.3652C20.5143 12.0305 20.6574 11.9713 20.7629 11.8658C20.8684 11.7603 20.9277 11.6172 20.9277 11.468ZM31.7209 29.5392H21.3128C20.8877 29.5392 20.543 29.8839 20.543 30.3091V31.6243C20.543 31.7221 20.5818 31.8158 20.651 31.885C20.7201 31.9541 20.8139 31.9929 20.9116 31.993H26.2434V40H26.7903V31.993H32.1222C32.22 31.9929 32.3137 31.9541 32.3829 31.885C32.452 31.8158 32.4908 31.7221 32.4909 31.6243V30.3091C32.4909 29.8839 32.1462 29.5392 31.7209 29.5392Z" fill="white"/>
</svg>
